<?xml version="1.0" standalone="no"?>
<!DOCTYPE svg PUBLIC "-//W3C//DTD SVG 20010904//EN"
 "http://www.w3.org/TR/2001/REC-SVG-20010904/DTD/svg10.dtd">
<svg version="1.0" xmlns="http://www.w3.org/2000/svg"
 width="2000.000000pt" height="2000.000000pt" viewBox="0 0 2000.000000 2000.000000"
 preserveAspectRatio="xMidYMid meet">

<g transform="translate(0.000000,2000.000000) scale(0.100000,-0.100000)"
fill="#000000" stroke="none">
<path d="M9420 16561 c8 -5 188 -82 400 -171 212 -89 441 -185 510 -215 69
-29 197 -83 285 -120 88 -37 162 -69 164 -71 2 -2 -9 -20 -24 -39 -15 -20 -25
-38 -24 -40 6 -5 119 -18 120 -14 1 2 4 52 8 112 l6 107 -30 10 c-75 23 -550
175 -960 306 -425 136 -491 155 -455 135z"/>
<path d="M2800 16191 c-5 -11 -10 -63 -10 -115 0 -84 3 -99 21 -117 18 -18 23
-19 42 -6 20 13 22 24 25 122 2 70 -1 112 -9 121 -17 20 -57 17 -69 -5z"/>
<path d="M3652 16154 c-93 -46 -141 -127 -142 -237 0 -108 42 -183 130 -231
131 -71 288 -29 359 96 105 183 -20 398 -230 398 -50 0 -77 -6 -117 -26z m185
-65 c57 -21 122 -108 123 -164 1 -100 -91 -194 -189 -195 -47 0 -116 35 -146
74 -110 145 41 350 212 285z"/>
<path d="M2546 15944 c-21 -20 -20 -30 4 -54 17 -17 33 -20 106 -20 95 0 124
10 124 43 0 40 -18 47 -121 47 -75 0 -101 -4 -113 -16z"/>
<path d="M2902 15948 c-18 -18 -14 -56 7 -68 21 -11 161 -14 199 -4 31 9 41
53 17 71 -24 17 -206 18 -223 1z"/>
<path d="M14337 15937 c-15 -11 -17 -28 -15 -132 3 -117 4 -120 26 -123 45 -7
52 12 52 129 0 84 -3 111 -16 123 -19 19 -25 20 -47 3z"/>
<path d="M2810 15880 c-11 -7 -16 -34 -18 -105 -5 -118 1 -143 33 -151 47 -12
55 8 55 127 0 84 -3 111 -16 123 -18 18 -32 20 -54 6z"/>
<path d="M14074 15682 c-17 -11 -22 -35 -12 -54 7 -16 24 -18 118 -18 98 0
110 2 120 19 13 25 13 27 -6 45 -12 12 -37 16 -112 16 -53 0 -102 -4 -108 -8z"/>
<path d="M14422 15678 c-6 -6 -12 -20 -12 -29 0 -33 25 -40 130 -37 85 3 105
6 114 21 8 12 8 22 0 35 -9 14 -29 17 -115 20 -73 2 -108 -1 -117 -10z"/>
<path d="M14332 15612 c-9 -6 -12 -39 -10 -127 3 -99 6 -120 21 -129 12 -8 22
-8 35 0 14 9 17 29 20 124 3 115 -4 140 -37 140 -9 0 -22 -4 -29 -8z"/>
<path d="M13005 15485 c-103 -38 -165 -132 -165 -250 0 -166 124 -277 290
-262 133 12 240 128 240 262 0 91 -55 184 -137 232 -56 33 -165 41 -228 18z
m168 -79 c57 -23 117 -111 117 -171 0 -62 -53 -138 -115 -166 -136 -62 -285
59 -253 206 24 109 149 174 251 131z"/>
<path d="M15753 14813 c-10 -3 -13 -39 -13 -128 0 -103 3 -124 16 -129 24 -9
31 -8 48 10 13 12 16 38 16 119 0 81 -3 107 -16 119 -16 16 -29 19 -51 9z"/>
<path d="M1834 14767 c-2 -7 -3 -65 -2 -128 3 -112 3 -114 27 -117 41 -6 51
21 51 133 0 65 -4 105 -12 113 -16 16 -57 15 -64 -1z"/>
<path d="M4891 14715 c-123 -28 -226 -112 -295 -245 -19 -36 -55 -119 -81
-184 -59 -153 -75 -179 -142 -222 -74 -47 -97 -98 -97 -209 1 -94 22 -152 82
-220 58 -66 115 -218 118 -315 1 -41 5 -120 9 -174 l6 -99 -23 16 c-59 43
-110 69 -123 63 -22 -8 -18 -34 8 -47 12 -6 36 -21 54 -33 l32 -21 -31 -33
c-29 -29 -30 -34 -17 -47 13 -14 19 -12 49 15 l34 31 18 -23 c9 -13 24 -63 33
-113 23 -129 90 -400 115 -467 32 -86 70 -130 177 -206 100 -71 125 -97 161
-169 32 -62 129 -161 186 -190 95 -48 213 -40 336 22 41 21 104 80 170 160 14
17 57 55 95 86 170 136 235 237 260 409 19 131 96 429 119 465 l18 27 33 -32
c53 -51 80 -12 29 41 l-26 28 56 31 c38 22 56 38 54 49 -6 29 -34 23 -100 -21
l-64 -44 7 51 c4 27 10 81 14 118 6 65 8 69 38 82 38 16 88 89 131 190 25 59
30 84 30 155 0 106 -9 125 -108 214 -65 58 -84 83 -127 166 -91 179 -239 285
-412 299 -98 7 -102 9 -245 139 -129 117 -171 150 -237 189 -118 70 -234 92
-344 68z m713 -770 c76 -16 182 -62 233 -101 45 -34 70 -88 94 -196 24 -109
31 -123 70 -144 44 -22 59 -68 59 -173 0 -123 -37 -386 -62 -434 -10 -21 -41
-76 -69 -122 l-50 -85 -24 29 c-61 72 -217 83 -419 31 -65 -17 -122 -32 -126
-35 -4 -3 -34 4 -66 15 -74 26 -210 50 -280 50 -94 0 -153 -18 -200 -62 l-44
-40 -40 83 c-22 46 -46 111 -55 144 -28 108 -55 286 -55 359 0 65 4 81 42 157
40 81 42 88 43 180 0 87 2 99 28 138 15 23 49 55 74 72 46 28 50 29 179 29
166 0 215 10 334 64 52 25 106 47 120 49 55 9 148 6 214 -8z m1 -1315 c60 -29
85 -69 85 -137 0 -50 -1 -52 -49 -87 -76 -56 -191 -106 -269 -118 -127 -19
-296 34 -414 129 -42 34 -47 43 -47 78 -1 53 28 99 81 127 39 21 58 23 217 26
96 1 177 5 180 8 14 15 171 -4 216 -26z"/>
<path d="M4845 13475 c-114 -25 -115 -26 -115 -96 0 -59 1 -61 23 -55 71 20
137 28 262 29 l139 2 9 43 c5 24 6 49 4 56 -13 34 -206 47 -322 21z"/>
<path d="M5505 13477 c-36 -12 -40 -16 -38 -45 3 -81 -4 -77 155 -78 87 -1
167 -7 205 -16 34 -9 65 -13 68 -10 8 8 6 95 -3 108 -25 39 -302 68 -387 41z"/>
<path d="M4924 13209 c-13 -15 -19 -36 -19 -69 0 -55 24 -90 61 -90 32 0 54
36 54 90 0 80 -52 117 -96 69z"/>
<path d="M5620 13215 c-21 -26 -25 -111 -6 -140 38 -58 106 -14 106 68 0 65
-66 113 -100 72z"/>
<path d="M9930 14599 c-165 -19 -348 -82 -463 -159 -221 -148 -413 -477 -522
-893 -34 -130 -112 -580 -141 -807 -33 -263 -12 -471 59 -588 103 -173 378
-282 715 -282 l72 0 0 163 0 162 -52 30 c-28 17 -82 60 -118 97 -198 199 -307
650 -260 1073 18 156 16 152 63 159 23 4 71 16 107 26 l65 20 49 142 c27 79
52 146 55 151 4 4 17 -59 29 -140 12 -83 27 -150 34 -154 45 -28 262 -18 341
15 l34 14 23 135 c14 75 27 134 30 131 3 -3 23 -67 45 -142 l40 -137 60 -13
c89 -18 277 -27 302 -14 18 10 21 24 27 124 11 177 15 179 52 23 18 -76 39
-142 46 -147 7 -4 24 -8 38 -8 14 0 35 -3 47 -6 22 -6 22 -9 25 -240 2 -170 6
-236 16 -246 9 -9 15 -9 24 0 21 21 26 13 21 -30 -5 -40 -4 -42 10 -23 15 20
16 20 46 -9 18 -17 36 -26 45 -23 23 9 20 30 -9 57 -14 13 -25 26 -25 30 0 3
22 19 50 35 48 29 67 65 35 65 -20 0 -71 -26 -111 -56 l-30 -24 22 68 c13 37
26 93 30 125 6 52 9 57 31 57 14 0 38 -7 53 -17 125 -74 93 -385 -54 -521 -25
-23 -46 -51 -46 -62 0 -11 -11 -27 -24 -35 -28 -19 -58 -9 -77 26 -14 26 -20
19 -49 -56 -39 -102 -129 -267 -180 -332 -28 -34 -77 -84 -109 -110 l-60 -48
0 -150 -1 -150 208 2 c185 1 213 3 264 23 161 60 243 244 267 600 22 313 33
772 21 870 -15 131 -54 300 -101 438 -41 119 -181 416 -217 462 -12 14 -39 49
-62 78 -92 118 -278 197 -521 222 -114 11 -161 11 -269 -1z"/>
<path d="M15487 14554 c-13 -14 -7 -62 9 -68 9 -3 57 -6 109 -6 100 0 119 9
113 52 -3 22 -7 23 -114 26 -60 1 -113 -1 -117 -4z"/>
<path d="M15834 14535 c-11 -46 8 -55 117 -55 99 0 129 10 129 44 0 29 -25 36
-132 36 -107 0 -108 0 -114 -25z"/>
<path d="M1582 14521 c-8 -5 -12 -21 -10 -37 l3 -29 115 0 c112 0 115 1 118
23 6 44 -13 52 -117 52 -53 0 -102 -4 -109 -9z"/>
<path d="M1932 14518 c-7 -7 -12 -19 -12 -28 0 -33 22 -40 126 -40 115 0 136
10 116 55 -11 24 -15 25 -115 25 -67 0 -107 -4 -115 -12z"/>
<path d="M15744 14477 c-2 -7 -3 -65 -2 -128 3 -110 4 -114 26 -117 44 -7 52
12 52 127 0 70 -4 111 -12 119 -16 16 -57 15 -64 -1z"/>
<path d="M1843 14453 c-18 -7 -18 -234 -1 -251 16 -16 33 -15 52 4 12 12 16
38 16 115 0 127 -14 154 -67 132z"/>
<path d="M14443 14365 c-259 -47 -465 -192 -578 -406 -75 -144 -112 -294 -122
-501 l-6 -128 69 0 69 0 63 123 c38 73 62 134 62 152 0 17 -9 63 -20 104 -26
97 -26 162 -1 185 28 25 255 35 733 31 404 -3 463 -9 533 -48 65 -37 66 -60
12 -166 -67 -129 -63 -166 27 -206 66 -29 75 -41 89 -114 l11 -59 63 1 63 2 0
116 c0 288 -86 524 -255 695 -118 120 -236 183 -408 219 -84 18 -304 18 -404
0z"/>
<path d="M2705 14134 c-72 -27 -123 -95 -158 -213 -25 -85 -35 -356 -18 -497
40 -339 157 -711 316 -998 30 -54 69 -142 86 -195 18 -53 34 -103 37 -111 3
-8 -19 19 -48 60 -264 372 -667 670 -906 670 -101 0 -194 -64 -194 -133 0 -50
52 -121 135 -184 84 -64 310 -181 490 -253 235 -95 407 -194 534 -307 l54 -49
193 -584 c106 -321 192 -586 190 -587 -1 -2 -37 48 -78 110 -147 217 -411 505
-618 673 -198 161 -430 297 -609 356 -83 27 -110 32 -206 32 -127 1 -181 -17
-249 -82 -70 -67 -81 -124 -41 -210 79 -170 430 -388 985 -612 249 -101 422
-187 574 -286 127 -83 255 -185 256 -203 0 -7 -9 -30 -20 -50 -41 -74 -190
-473 -335 -895 l-82 -238 -6 68 c-26 279 -208 613 -469 859 -160 151 -210 177
-238 125 -15 -28 -4 -44 71 -106 227 -186 422 -459 499 -701 45 -139 53 -215
47 -410 -6 -169 -7 -177 -56 -350 -174 -620 -315 -1320 -372 -1853 -6 -58 -14
-299 -18 -537 -3 -237 -9 -435 -14 -439 -9 -10 -107 21 -172 54 -72 36 -187
152 -260 262 -35 52 -102 169 -149 258 -96 184 -140 252 -235 366 -200 239
-535 435 -880 515 -51 12 -95 20 -98 17 -3 -2 19 -33 49 -68 216 -256 419
-598 502 -848 64 -193 82 -373 50 -515 -25 -113 -30 -288 -10 -379 28 -123 76
-208 175 -306 134 -134 289 -213 528 -271 70 -17 145 -40 166 -51 49 -24 120
-95 144 -142 l19 -37 52 139 c28 77 77 195 109 263 50 110 57 133 61 201 3 75
3 78 -21 87 -23 9 -25 15 -32 121 -4 61 -5 113 -3 115 2 2 39 -5 82 -15 110
-27 297 -43 444 -38 67 1 122 3 122 3 0 0 -15 -47 -33 -105 l-33 -105 -43 -10
-43 -9 5 -61 c3 -33 11 -109 17 -170 15 -134 7 -402 -14 -499 -17 -74 -150
-368 -192 -423 -35 -46 -66 -44 -90 4 -22 48 -22 154 1 313 20 138 18 193 -8
198 -42 8 -117 -115 -158 -263 -19 -65 -23 -106 -23 -220 -1 -77 3 -183 8
-235 l9 -95 62 -62 c78 -78 233 -179 411 -268 l139 -70 -540 -5 c-536 -5 -540
-5 -586 -28 -109 -53 -168 -150 -171 -278 -4 -142 54 -244 170 -301 l57 -28
7990 0 7990 0 56 26 c72 34 134 99 160 169 31 82 24 205 -16 278 -32 59 -75
101 -138 134 -41 23 -48 23 -454 26 -322 2 -413 6 -413 15 0 7 123 343 274
746 l274 734 83 55 c113 74 314 169 479 227 327 114 553 228 679 341 116 104
107 220 -23 280 -206 96 -605 -94 -973 -463 -68 -68 -123 -121 -123 -119 0 3
45 127 101 277 105 282 130 331 277 551 79 119 172 229 360 429 361 383 552
683 552 866 0 81 -23 121 -90 156 -130 66 -275 13 -455 -168 -319 -319 -609
-935 -701 -1490 -13 -79 -91 -326 -109 -343 -2 -2 -1 77 2 175 15 483 -105
946 -297 1145 -64 67 -96 86 -86 51 30 -105 86 -638 86 -821 l0 -122 49 -103
c82 -171 161 -429 161 -528 0 -28 -499 -1384 -506 -1376 -2 2 2 43 8 93 15
121 15 571 -1 719 -16 154 -54 379 -87 516 l-25 106 -112 -58 c-62 -32 -175
-83 -252 -114 -77 -32 -161 -69 -187 -83 l-48 -25 47 -86 c25 -47 81 -147 123
-221 223 -390 351 -726 405 -1063 l16 -98 -37 -100 -37 -99 -344 0 -343 0 0
38 c0 20 -9 197 -20 392 -11 195 -20 371 -20 390 l0 36 93 24 94 23 6 561 c4
309 7 678 7 821 l0 260 56 55 c216 211 333 554 374 1095 6 83 15 169 20 192
44 194 184 390 390 544 83 62 110 88 110 105 0 46 -41 36 -138 -33 -127 -91
-257 -228 -328 -348 -78 -131 -108 -242 -124 -465 -18 -245 -56 -459 -112
-630 -23 -73 -102 -234 -145 -296 -29 -42 -89 -114 -96 -114 -2 0 -7 366 -11
813 -3 446 -11 956 -16 1132 -5 176 -15 511 -20 745 -12 462 -24 783 -41 1068
-6 101 -9 186 -6 188 2 3 47 9 98 15 305 33 742 190 1166 418 107 57 122 68
117 86 -7 20 -288 622 -370 791 l-44 91 -121 -44 c-275 -100 -615 -189 -879
-230 -169 -26 -564 -24 -670 3 -92 25 -463 234 -615 348 l-98 74 -42 -57 c-56
-76 -135 -145 -202 -176 -124 -59 -261 -22 -396 109 -37 36 -69 66 -72 66 -10
0 -447 -251 -625 -359 -287 -175 -468 -308 -551 -404 -25 -30 -892 -1385 -962
-1503 -8 -13 26 -162 157 -699 143 -586 146 -599 161 -577 7 9 108 173 225
365 117 191 214 346 216 345 1 -2 -1 -127 -6 -278 -28 -870 -50 -2347 -50
-3335 l0 -741 96 -24 97 -25 -7 -85 c-3 -47 -13 -233 -22 -415 -8 -181 -17
-336 -19 -342 -4 -10 -122 -13 -549 -13 -510 0 -545 1 -550 18 -8 26 -92 532
-121 727 -14 94 -27 180 -30 192 l-5 22 382 3 c418 3 409 2 472 64 66 67 61
-53 61 1454 0 1507 5 1387 -61 1454 -66 65 -5 61 -923 64 -677 2 -836 5 -845
16 -6 7 -49 18 -95 25 -99 15 -245 56 -356 100 -203 82 -539 285 -682 413 -27
25 -67 20 -71 -8 -4 -26 51 -77 183 -170 233 -163 423 -264 645 -340 l95 -33
-307 0 -307 -1 -103 62 c-271 161 -498 342 -722 576 -86 89 -118 102 -124 50
-3 -22 15 -45 110 -140 62 -63 140 -137 173 -166 33 -28 71 -61 85 -73 47 -41
245 -186 338 -247 l94 -62 -1189 -2 -1188 -3 -46 -27 -46 -27 -7 106 c-3 58
-6 201 -6 317 0 116 -5 379 -10 585 -6 206 -8 376 -7 378 2 2 32 -42 66 -98
82 -131 255 -372 344 -479 104 -125 243 -259 326 -314 78 -52 169 -86 230 -86
67 0 154 54 273 168 l109 105 -3 111 -3 110 -117 13 c-141 16 -319 59 -409
101 l-67 30 -6 48 c-3 27 -8 182 -12 344 -3 162 -11 300 -16 307 -6 7 -4 22 7
43 19 37 13 50 -26 50 -21 0 -29 5 -29 18 0 10 5 23 10 28 7 7 -23 67 -96 190
-128 214 -456 789 -615 1076 -62 113 -116 205 -118 202 -2 -2 -34 24 -70 59
-81 77 -164 135 -351 247 -151 91 -619 345 -624 338 -4 -3 -22 -104 -101 -577
-50 -294 -83 -535 -116 -851 -16 -156 -17 -676 -1 -881 15 -200 17 -785 3
-959 -5 -69 -13 -163 -16 -210 -6 -80 -29 -293 -74 -683 -43 -367 -51 -692
-22 -912 40 -302 37 -803 -9 -1375 -6 -69 -19 -240 -30 -380 -11 -140 -23
-274 -26 -297 l-5 -43 -81 0 -81 0 6 -385 7 -385 -113 0 c-61 0 -128 4 -147 9
-19 6 -53 14 -75 20 l-40 11 3 365 4 365 -108 1 c-132 1 -300 12 -308 20 -3 3
6 113 19 245 65 615 112 1300 120 1724 3 151 7 299 10 329 10 134 -18 451 -84
936 -28 204 -35 265 -61 525 -6 52 -13 205 -16 340 -9 332 7 568 72 1050 20
151 15 543 -10 813 -21 217 -152 1202 -162 1216 -6 8 -479 -254 -641 -355
-196 -122 -335 -236 -393 -322 -8 -12 -26 -47 -40 -78 l-25 -57 -143 433
c-121 363 -143 438 -137 468 19 102 124 325 239 506 72 114 176 319 210 414
53 148 53 254 1 300 -35 30 -121 31 -182 1 -165 -80 -317 -441 -356 -847 l-12
-123 -82 248 c-64 193 -86 273 -98 363 -23 169 -29 367 -16 500 21 198 30 449
21 595 -17 279 -71 430 -167 471 -40 17 -67 17 -118 -2z m705 -6571 l0 -97
-21 21 c-21 21 -21 21 -3 97 10 42 19 76 21 76 2 0 3 -44 3 -97z m-11 -733
c-5 -278 -8 -611 -7 -740 2 -152 -1 -235 -7 -235 -14 0 -299 57 -303 60 -5 4
39 238 48 260 11 25 68 365 110 655 17 118 47 293 66 388 19 95 34 175 34 177
0 2 15 -10 34 -28 l34 -32 -9 -505z m4418 -2218 l412 -3 -5 -27 c-2 -15 -18
-115 -34 -222 -30 -201 -109 -675 -116 -697 -3 -10 -119 -13 -538 -13 -294 0
-536 3 -538 8 -2 4 -1 216 2 471 l5 464 149 33 c82 19 151 36 154 39 3 2 25
-8 51 -23 l46 -27 412 -3z m7027 -324 c4 -21 37 -579 36 -620 0 -17 -17 -18
-210 -18 l-210 0 0 43 c0 62 31 590 35 605 3 9 47 12 174 12 169 0 171 0 175
-22z m-11144 -578 c0 -35 -4 -50 -13 -50 -11 0 -11 10 -3 50 5 28 11 50 13 50
2 0 3 -22 3 -50z"/>
<path d="M9639 13540 c-126 -21 -161 -33 -195 -62 -19 -16 -34 -36 -34 -44 0
-8 1 -14 3 -14 1 0 34 7 72 15 39 8 121 17 183 21 97 6 114 10 123 26 8 14 6
26 -6 44 -17 26 -53 30 -146 14z"/>
<path d="M10161 13531 c-16 -16 -18 -26 -12 -43 8 -22 17 -24 147 -35 77 -7
158 -17 181 -23 53 -13 53 -13 53 3 0 48 -121 96 -277 111 -64 6 -74 5 -92
-13z"/>
<path d="M14137 13469 c-68 -16 -77 -25 -77 -75 0 -39 3 -45 16 -40 34 13 162
27 232 25 40 -1 74 0 76 2 2 2 6 20 10 40 6 35 5 38 -25 48 -37 13 -177 13
-232 0z"/>
<path d="M14847 13469 c-25 -10 -27 -14 -21 -47 4 -21 8 -39 10 -41 2 -2 36
-3 76 -2 70 2 198 -12 232 -25 13 -5 16 2 16 43 0 48 -1 50 -37 62 -51 17
-240 24 -276 10z"/>
<path d="M9581 13311 c-32 -32 -29 -114 4 -146 30 -31 39 -31 64 -3 31 33 36
80 15 125 -22 45 -53 54 -83 24z"/>
<path d="M10296 13308 c-34 -53 -27 -136 15 -158 42 -23 79 21 79 94 0 74 -61
115 -94 64z"/>
<path d="M13772 13283 c-20 -4 -20 -6 -7 -19 8 -9 15 -31 15 -50 0 -34 0 -34
45 -34 l45 0 0 49 c0 46 -1 49 -31 55 -17 3 -34 5 -38 5 -3 -1 -16 -4 -29 -6z"/>
<path d="M15399 13283 c-10 -2 -19 -19 -23 -41 -10 -62 -10 -62 48 -62 l54 0
6 38 c4 20 9 45 12 55 5 14 -1 17 -38 16 -24 -1 -50 -3 -59 -6z"/>
<path d="M14231 13201 c-31 -31 -36 -83 -15 -128 31 -63 84 -56 103 14 12 44
5 85 -21 112 -24 26 -43 26 -67 2z"/>
<path d="M14920 13193 c-40 -50 -11 -163 41 -163 29 0 59 48 59 95 0 48 -30
95 -60 95 -10 0 -28 -12 -40 -27z"/>
<path d="M13627 13104 c-12 -13 7 -35 54 -61 27 -14 49 -30 49 -34 0 -5 -11
-19 -25 -33 -51 -51 -18 -77 38 -30 l31 26 18 -24 18 -23 -6 45 c-4 33 -14 52
-37 73 -54 48 -123 78 -140 61z"/>
<path d="M15539 13082 c-59 -39 -76 -60 -84 -107 -7 -39 -7 -39 11 -23 17 17
20 17 49 -12 27 -26 33 -28 49 -17 17 13 17 16 -14 50 l-32 36 48 31 c26 16
52 30 56 30 4 0 8 9 8 20 0 29 -37 26 -91 -8z"/>
<path d="M10827 11042 c-175 -272 -472 -469 -857 -566 -120 -30 -125 -33 -128
-59 -5 -38 14 -42 105 -22 207 45 458 153 609 260 209 149 420 421 348 449
-28 11 -34 7 -77 -62z"/>
<path d="M11384 9446 c3 -14 1 -28 -5 -32 -6 -3 29 -26 77 -50 91 -45 145 -87
177 -136 19 -31 48 -36 67 -13 18 22 -12 75 -70 127 -43 38 -211 128 -239 128
-9 0 -11 -8 -7 -24z"/>
<path d="M10581 9414 c-192 -63 -473 -87 -985 -82 l-389 3 -10 -28 c-5 -16 -6
-31 -2 -35 13 -14 943 -8 1060 6 230 28 416 74 442 109 15 20 0 53 -25 52 -9
-1 -50 -12 -91 -25z"/>
<path d="M8589 9182 c-147 -151 -181 -200 -160 -226 8 -9 19 -16 27 -16 7 0
53 47 103 104 50 57 127 138 172 179 l81 76 -39 10 c-21 6 -41 11 -44 11 -4 0
-67 -62 -140 -138z"/>
<path d="M11160 9157 c-85 -135 -159 -209 -252 -251 -79 -37 -238 -88 -498
-161 -214 -60 -199 -54 -175 -67 11 -7 53 -12 95 -12 63 0 109 10 285 62 269
80 348 118 452 219 134 130 234 314 171 313 -7 0 -42 -47 -78 -103z"/>
<path d="M10560 1535 c-10 -12 -10 -19 -2 -27 22 -22 12 -37 -28 -49 -43 -13
-49 -36 -9 -31 13 1 55 6 93 10 80 8 101 29 34 34 -42 3 -43 4 -43 38 0 39
-23 52 -45 25z"/>
<path d="M10776 1412 c-3 -5 11 -24 31 -43 19 -19 43 -46 52 -61 11 -18 21
-24 30 -19 10 7 10 14 -3 39 -20 39 -20 39 4 45 24 6 27 35 4 44 -11 4 -23 -2
-33 -16 l-17 -22 -19 20 c-19 22 -40 27 -49 13z"/>
<path d="M11134 1396 c-21 -17 -29 -35 -33 -72 -6 -45 -8 -49 -34 -52 -25 -3
-28 -7 -25 -35 2 -27 8 -33 31 -35 l27 -3 0 -105 0 -104 35 0 35 0 0 105 0
105 45 0 c45 0 45 0 45 34 0 34 -1 35 -42 38 -41 3 -43 5 -41 32 3 36 19 48
56 42 25 -5 27 -3 27 28 0 38 -12 46 -65 46 -21 0 -44 -9 -61 -24z"/>
<path d="M12440 1400 c-24 -24 -25 -43 -4 -64 18 -19 55 -21 72 -4 19 19 15
66 -7 78 -28 14 -38 13 -61 -10z"/>
<path d="M10512 1384 c-57 -28 -97 -73 -118 -131 -17 -49 -18 -118 -1 -131 7
-6 45 -16 85 -22 121 -19 307 15 373 68 19 16 20 21 9 62 -41 153 -205 225
-348 154z m73 -109 c28 -27 32 -61 10 -92 -49 -70 -160 0 -120 77 24 47 72 54
110 15z m173 9 c26 -18 28 -50 5 -76 -22 -25 -59 -23 -77 4 -21 30 -20 44 4
68 24 24 38 25 68 4z"/>
<path d="M12560 1200 l0 -210 40 0 40 0 0 52 0 52 53 -52 c49 -49 56 -52 102
-52 l49 0 -40 43 c-21 23 -52 56 -67 73 l-28 31 68 66 68 67 -49 0 c-43 0 -53
-5 -100 -46 l-51 -47 -3 117 -3 116 -39 0 -40 0 0 -210z"/>
<path d="M7380 1310 c0 -38 -3 -70 -7 -70 -3 0 -14 7 -23 15 -27 25 -83 29
-122 11 -49 -23 -68 -62 -68 -136 0 -73 19 -113 66 -135 43 -20 72 -19 117 5
31 17 37 17 37 5 0 -8 9 -15 20 -15 19 0 20 7 20 195 0 188 -1 195 -20 195
-18 0 -20 -7 -20 -70z m-40 -87 c36 -24 40 -32 40 -90 0 -66 -6 -80 -42 -99
-40 -21 -93 -11 -114 20 -65 101 25 232 116 169z"/>
<path d="M9330 1310 l0 -70 -32 20 c-117 71 -231 -70 -169 -207 32 -69 104
-92 169 -53 26 16 32 17 32 5 0 -9 10 -15 25 -15 l25 0 0 195 0 195 -25 0
c-24 0 -25 -2 -25 -70z m-19 -96 c15 -14 19 -31 19 -85 0 -61 -3 -70 -26 -88
-35 -28 -77 -26 -111 3 -25 22 -28 31 -28 86 0 56 3 64 29 87 23 20 37 24 64
19 19 -3 43 -13 53 -22z"/>
<path d="M9590 1185 c0 -188 1 -195 20 -195 11 0 20 7 20 15 0 12 7 11 40 -6
53 -28 103 -21 144 20 26 26 31 39 34 94 8 130 -77 201 -178 148 l-40 -21 0
70 c0 63 -2 70 -20 70 -19 0 -20 -7 -20 -195z m182 27 c27 -25 32 -36 32 -81
1 -47 -2 -56 -32 -82 -38 -34 -65 -36 -109 -9 -32 19 -33 21 -33 90 0 69 1 71
33 90 44 27 71 25 109 -8z"/>
<path d="M10382 1356 c-20 -27 -42 -34 -42 -15 0 6 -10 9 -22 7 -30 -4 -29
-30 0 -43 18 -8 22 -15 17 -35 -11 -42 -11 -44 8 -48 11 -2 17 3 17 14 0 10
14 42 31 72 33 60 27 94 -9 48z"/>
<path d="M8064 1355 c-8 -21 2 -45 19 -45 20 0 40 27 33 45 -7 19 -45 20 -52
0z"/>
<path d="M7551 1262 c-44 -24 -71 -74 -71 -132 0 -113 100 -180 204 -136 38
16 53 33 39 47 -6 6 -21 4 -39 -6 -16 -8 -43 -15 -61 -15 -40 0 -93 43 -93 76
0 24 0 24 110 24 l110 0 0 28 c0 42 -33 95 -71 114 -44 23 -86 23 -128 0z
m123 -44 c13 -13 27 -33 31 -45 6 -23 5 -23 -89 -23 l-95 0 11 30 c21 61 95
80 142 38z"/>
<path d="M7840 1268 c-34 -18 -55 -58 -46 -91 7 -29 33 -45 115 -69 56 -17 72
-39 47 -67 -24 -27 -80 -27 -123 -2 -27 17 -32 18 -37 5 -10 -27 -7 -32 39
-50 88 -33 175 4 175 75 0 38 -29 62 -103 86 -64 21 -81 42 -57 70 17 20 80
19 109 -1 19 -14 25 -14 32 -3 12 20 11 23 -12 37 -31 20 -110 25 -139 10z"/>
<path d="M8245 1270 c-46 -18 -69 -58 -73 -124 -7 -102 34 -157 118 -158 28 0
52 7 71 21 l29 22 0 -31 c0 -22 -10 -41 -30 -62 -28 -27 -36 -30 -76 -25 -25
2 -53 12 -62 20 -16 15 -19 15 -30 -3 -10 -17 -8 -21 16 -34 71 -36 146 -30
192 16 l30 30 0 164 c0 157 -1 164 -20 164 -11 0 -20 -7 -20 -15 0 -12 -6 -12
-37 5 -39 21 -74 24 -108 10z m113 -50 c31 -19 32 -22 32 -83 0 -55 -3 -67
-25 -87 -29 -28 -83 -32 -111 -9 -51 42 -53 132 -2 174 36 30 62 31 106 5z"/>
<path d="M8588 1261 c-31 -17 -38 -18 -38 -6 0 8 -9 15 -20 15 -19 0 -20 -7
-20 -140 0 -133 1 -140 20 -140 19 0 20 7 20 105 l0 105 33 20 c38 24 66 25
93 6 16 -12 19 -29 22 -125 3 -101 5 -111 23 -111 18 0 19 9 19 119 0 98 -3
122 -18 141 -25 31 -87 36 -134 11z"/>
<path d="M8871 1262 c-44 -24 -71 -74 -71 -132 0 -113 100 -180 204 -136 38
16 53 33 39 47 -6 6 -21 4 -39 -6 -16 -8 -43 -15 -61 -15 -40 0 -93 43 -93 76
0 24 0 24 111 24 l112 0 -6 40 c-7 54 -31 88 -72 106 -46 19 -83 18 -124 -4z
m123 -44 c13 -13 27 -33 31 -45 6 -23 5 -23 -89 -23 l-96 0 11 28 c23 61 96
82 143 40z"/>
<path d="M11392 1264 c-12 -8 -22 -10 -22 -5 0 6 -18 11 -40 11 l-40 0 0 -140
0 -140 40 0 40 0 0 86 c0 47 5 94 10 104 6 11 26 22 45 26 35 6 71 46 60 64
-10 15 -68 12 -93 -6z"/>
<path d="M11543 1260 c-44 -26 -67 -74 -66 -137 0 -60 19 -95 66 -123 40 -25
116 -26 163 -4 39 18 42 33 15 58 -16 14 -23 15 -41 6 -32 -17 -78 -15 -100 5
-11 10 -20 22 -20 27 0 4 45 8 100 8 l100 0 0 32 c0 50 -36 114 -74 132 -46
22 -104 20 -143 -4z m125 -77 l14 -23 -61 0 c-63 0 -72 7 -45 35 23 22 73 16
92 -12z"/>
<path d="M11865 1270 c-27 -11 -61 -49 -74 -83 -27 -72 2 -162 63 -191 44 -21
118 -21 159 0 44 22 43 21 18 48 -21 22 -24 23 -61 10 -46 -16 -83 -6 -100 26
-10 20 -8 20 90 20 l100 0 0 43 c0 51 -28 100 -69 122 -32 16 -93 19 -126 5z
m109 -82 c15 -25 5 -29 -58 -26 l-57 3 17 23 c12 18 24 22 51 20 20 -2 41 -10
47 -20z"/>
<path d="M12200 1263 c-17 -12 -25 -13 -28 -5 -2 7 -19 12 -38 12 l-34 0 0
-200 0 -200 40 0 40 0 0 66 c0 60 2 65 18 58 9 -5 40 -9 69 -9 41 0 57 5 78
25 54 50 69 126 37 190 -35 70 -127 102 -182 63z m89 -70 c12 -10 24 -35 27
-55 5 -30 2 -41 -19 -62 -52 -52 -122 -20 -122 54 0 69 64 104 114 63z"/>
<path d="M8070 1130 c0 -133 1 -140 20 -140 19 0 20 7 20 140 0 133 -1 140
-20 140 -19 0 -20 -7 -20 -140z"/>
<path d="M9870 1266 c0 -2 25 -63 55 -136 30 -73 55 -140 55 -150 0 -28 -40
-72 -61 -67 -11 3 -19 -2 -22 -14 -7 -26 32 -35 70 -15 29 14 53 65 180 374 3
8 -4 12 -20 12 -22 0 -29 -11 -67 -105 -23 -58 -45 -107 -49 -109 -3 -2 -26
45 -50 105 -38 97 -46 109 -67 109 -13 0 -24 -2 -24 -4z"/>
<path d="M12440 1130 l0 -140 35 0 35 0 0 140 0 140 -35 0 -35 0 0 -140z"/>
<path d="M10846 1131 c-10 -16 -125 -50 -208 -61 -53 -8 -101 -8 -150 -1 -40
5 -74 8 -77 5 -2 -2 16 -23 40 -47 91 -87 233 -92 327 -11 40 34 89 110 79
121 -3 2 -8 0 -11 -6z"/>
</g>
</svg>
